<?xml version="1.0" encoding="UTF-8"?>
<svg version="1.1" xmlns="http://www.w3.org/2000/svg" width="96" height="96">
<path d="M0 0 C0.68570572 0.34481918 1.37141144 0.68963837 2.07789612 1.04490662 C2.80046097 1.39862839 3.52302582 1.75235016 4.26748657 2.11679077 C6.55395296 3.23868456 8.8334744 4.37393613 11.11305237 5.50975037 C12.67055439 6.27692174 14.2284932 7.04320701 15.78688049 7.80857849 C19.58823291 9.67792551 23.38342012 11.55927421 27.17555237 13.44725037 C27.17555237 15.75725037 27.17555237 18.06725037 27.17555237 20.44725037 C26.51555237 20.44725037 25.85555237 20.44725037 25.17555237 20.44725037 C25.17555237 21.76725037 25.17555237 23.08725037 25.17555237 24.44725037 C24.51555237 24.44725037 23.85555237 24.44725037 23.17555237 24.44725037 C23.17555237 36.32725037 23.17555237 48.20725037 23.17555237 60.44725037 C23.83555237 60.44725037 24.49555237 60.44725037 25.17555237 60.44725037 C25.17555237 61.76725037 25.17555237 63.08725037 25.17555237 64.44725037 C26.49555237 64.44725037 27.81555237 64.44725037 29.17555237 64.44725037 C29.17555237 65.76725037 29.17555237 67.08725037 29.17555237 68.44725037 C30.49555237 68.44725037 31.81555237 68.44725037 33.17555237 68.44725037 C33.17555237 69.76725037 33.17555237 71.08725037 33.17555237 72.44725037 C4.13555237 72.44725037 -24.90444763 72.44725037 -54.82444763 72.44725037 C-54.82444763 71.12725037 -54.82444763 69.80725037 -54.82444763 68.44725037 C-53.50444763 68.44725037 -52.18444763 68.44725037 -50.82444763 68.44725037 C-50.82444763 67.12725037 -50.82444763 65.80725037 -50.82444763 64.44725037 C-49.50444763 64.44725037 -48.18444763 64.44725037 -46.82444763 64.44725037 C-46.82444763 63.12725037 -46.82444763 61.80725037 -46.82444763 60.44725037 C-46.16444763 60.44725037 -45.50444763 60.44725037 -44.82444763 60.44725037 C-44.82444763 48.56725037 -44.82444763 36.68725037 -44.82444763 24.44725037 C-45.48444763 24.44725037 -46.14444763 24.44725037 -46.82444763 24.44725037 C-46.82444763 23.12725037 -46.82444763 21.80725037 -46.82444763 20.44725037 C-47.48444763 20.44725037 -48.14444763 20.44725037 -48.82444763 20.44725037 C-48.82444763 18.13725037 -48.82444763 15.82725037 -48.82444763 13.44725037 C-44.18081546 11.18455856 -39.53601759 8.92428419 -34.89012146 6.66624451 C-33.30972008 5.89770315 -31.7296396 5.12850154 -30.14988708 4.35862732 C-27.87948756 3.25231577 -25.60794558 2.14838172 -23.33616638 1.04490662 C-22.62981552 0.70008743 -21.92346466 0.35526825 -21.19570923 0 C-13.14555193 -3.90352504 -8.0239232 -3.89258476 0 0 Z M-32.82444763 20.44725037 C-32.82444763 21.76725037 -32.82444763 23.08725037 -32.82444763 24.44725037 C-33.48444763 24.44725037 -34.14444763 24.44725037 -34.82444763 24.44725037 C-34.82444763 36.32725037 -34.82444763 48.20725037 -34.82444763 60.44725037 C-18.98444763 60.44725037 -3.14444763 60.44725037 13.17555237 60.44725037 C13.17555237 48.56725037 13.17555237 36.68725037 13.17555237 24.44725037 C12.51555237 24.44725037 11.85555237 24.44725037 11.17555237 24.44725037 C11.17555237 23.12725037 11.17555237 21.80725037 11.17555237 20.44725037 C-3.34444763 20.44725037 -17.86444763 20.44725037 -32.82444763 20.44725037 Z " fill="#D7CCC8" transform="translate(58.82444763183594,13.552749633789063)"/>
<path d="M0 0 C1.89575251 -0.02721176 3.79161979 -0.04649136 5.6875 -0.0625 C6.74324219 -0.07410156 7.79898438 -0.08570313 8.88671875 -0.09765625 C12 0 12 0 14.70703125 0.56640625 C17.14889345 1.22091922 17.14889345 1.22091922 20 0 C22.06145107 -0.068991 24.12501401 -0.08467727 26.1875 -0.0625 C27.81751953 -0.04896484 27.81751953 -0.04896484 29.48046875 -0.03515625 C30.31191406 -0.02355469 31.14335938 -0.01195312 32 0 C32 0.66 32 1.32 32 2 C33.32 2 34.64 2 36 2 C36 10.58 36 19.16 36 28 C28.625 28.4375 28.625 28.4375 26.30712891 28.56811523 C22.52818684 28.76209704 22.52818684 28.76209704 19 30 C13.46153846 30.23076923 13.46153846 30.23076923 11 29 C8.45213572 28.76811572 5.9274885 28.58133625 3.375 28.4375 C0.94125 28.293125 -1.4925 28.14875 -4 28 C-4 19.42 -4 10.84 -4 2 C-2.68 2 -1.36 2 0 2 C0 1.34 0 0.68 0 0 Z " fill="#E4E1E0" transform="translate(32,40)"/>
<path d="M0 0 C29.04 0 58.08 0 88 0 C88 1.32 88 2.64 88 4 C58.96 4 29.92 4 0 4 C0 2.68 0 1.36 0 0 Z " fill="#D7CCC8" transform="translate(4,82)"/>
<path d="M0 0 C26.4 0 52.8 0 80 0 C80 1.32 80 2.64 80 4 C53.6 4 27.2 4 0 4 C0 2.68 0 1.36 0 0 Z " fill="#BCAAA4" transform="translate(8,78)"/>
<path d="M0 0 C1.32 0 2.64 0 4 0 C4 7.59 4 15.18 4 23 C14.56 23 25.12 23 36 23 C36 15.41 36 7.82 36 0 C37.32 0 38.64 0 40 0 C40 8.58 40 17.16 40 26 C32.625 26.4375 32.625 26.4375 30.30712891 26.56811523 C26.52818684 26.76209704 26.52818684 26.76209704 23 28 C17.46153846 28.23076923 17.46153846 28.23076923 15 27 C12.45213572 26.76811572 9.9274885 26.58133625 7.375 26.4375 C4.94125 26.293125 2.5075 26.14875 0 26 C0 17.42 0 8.84 0 0 Z " fill="#CD2C2C" transform="translate(28,42)"/>
<path d="M0 0 C2.908125 0.0309375 2.908125 0.0309375 5.875 0.0625 C5.875 7.3225 5.875 14.5825 5.875 22.0625 C1.255 22.7225 -3.365 23.3825 -8.125 24.0625 C-8.125 16.4725 -8.125 8.8825 -8.125 1.0625 C-5.36047967 -0.31976016 -3.0788637 -0.03275387 0 0 Z " fill="#E4E1E0" transform="translate(58.125,39.9375)"/>
<path d="M0 0 C1.32 0 2.64 0 4 0 C4.33 7.26 4.66 14.52 5 22 C5.99 21.67 6.98 21.34 8 21 C9.72795352 20.93197033 11.45835365 20.91504355 13.1875 20.9375 C14.08855469 20.94652344 14.98960938 20.95554687 15.91796875 20.96484375 C16.60503906 20.97644531 17.29210937 20.98804687 18 21 C18 21.99 18 22.98 18 24 C7.44 24 -3.12 24 -14 24 C-14 23.01 -14 22.02 -14 21 C-12.41705218 20.94562393 -10.83355744 20.90703729 -9.25 20.875 C-8.36828125 20.85179688 -7.4865625 20.82859375 -6.578125 20.8046875 C-4 21 -4 21 0 23 C0 15.41 0 7.82 0 0 Z " fill="#BDA7A2" transform="translate(46,41)"/>
<path d="M0 0 C4.62 0 9.24 0 14 0 C14 1.32 14 2.64 14 4 C9.38 4 4.76 4 0 4 C0 2.68 0 1.36 0 0 Z " fill="#BCAAA4" transform="translate(70,34)"/>
<path d="M0 0 C4.62 0 9.24 0 14 0 C14 1.32 14 2.64 14 4 C9.38 4 4.76 4 0 4 C0 2.68 0 1.36 0 0 Z " fill="#BCAAA4" transform="translate(12,34)"/>
<path d="M0 0 C2.625 0.375 2.625 0.375 5 1 C5.625 3.375 5.625 3.375 6 6 C5.34 6.66 4.68 7.32 4 8 C1.375 7.625 1.375 7.625 -1 7 C-1.625 4.625 -1.625 4.625 -2 2 C-1.34 1.34 -0.68 0.68 0 0 Z " fill="#BDACA6" transform="translate(46,20)"/>
</svg>
